<?xml version="1.0" standalone="no"?>
<!DOCTYPE svg PUBLIC "-//W3C//DTD SVG 20010904//EN"
 "http://www.w3.org/TR/2001/REC-SVG-20010904/DTD/svg10.dtd">
<svg version="1.0" xmlns="http://www.w3.org/2000/svg"
 width="184.000000pt" height="184.000000pt" viewBox="0 0 184.000000 184.000000"
 preserveAspectRatio="xMidYMid meet">
<metadata>
Created by potrace 1.14, written by Peter Selinger 2001-2017
</metadata>
<g transform="translate(0.000000,184.000000) scale(0.100000,-0.100000)"
fill="#000000" stroke="none">
<path d="M0 920 l0 -920 920 0 920 0 0 920 0 920 -920 0 -920 0 0 -920z m1109
874 c2 -2 -38 -4 -90 -4 -278 0 -533 -104 -716 -291 -150 -154 -223 -317 -239
-534 -4 -44 -2 -95 2 -113 l9 -33 550 0 c563 1 719 -6 814 -34 65 -20 111 -62
111 -102 0 -81 -153 -222 -332 -308 -71 -34 -75 -35 -198 -35 -69 0 -169 7
-222 15 -95 14 -99 16 -135 56 -21 23 -44 49 -52 56 -20 21 -11 23 59 13 36
-5 126 -10 200 -10 l135 0 75 -55 75 -56 -59 56 c-32 31 -57 57 -55 59 2 1 42
8 89 14 97 13 322 63 316 70 -3 2 -40 -3 -83 -12 -90 -18 -300 -46 -344 -46
-17 0 -56 15 -87 33 -31 18 -76 41 -100 52 -52 22 -43 30 48 39 36 4 115 21
176 38 l112 31 93 -27 c52 -15 118 -38 147 -51 29 -13 50 -20 46 -14 -8 14
-105 57 -189 84 l-69 22 62 28 c34 15 61 30 59 31 -2 2 -36 -8 -76 -23 l-72
-26 -144 29 -144 28 27 19 c15 11 19 16 9 13 -123 -40 -130 -41 -352 -40 -177
1 -243 5 -337 22 -108 20 -148 21 -148 3 0 -3 19 -29 41 -56 53 -64 102 -135
93 -135 -7 0 -18 12 -76 80 l-30 35 16 -33 c9 -18 45 -63 79 -100 71 -76 100
-118 94 -135 -2 -6 -40 25 -85 70 -80 80 -82 81 -56 35 163 -286 452 -459 804
-483 l115 -8 -140 4 c-123 4 -152 8 -240 36 -142 45 -268 113 -369 200 -106
91 -223 283 -262 429 -26 94 -25 300 0 400 52 202 185 388 361 505 181 121
398 181 605 167 41 -3 77 -6 79 -8z m54 -11 c-7 -2 -21 -2 -30 0 -10 3 -4 5
12 5 17 0 24 -2 18 -5z m377 -249 c72 -21 98 -40 109 -79 13 -49 -4 -118 -54
-220 -51 -103 -60 -115 -135 -175 -103 -84 -193 -112 -525 -164 -197 -31 -464
-60 -472 -52 -4 3 4 6 17 6 13 0 80 14 149 31 108 27 138 31 211 26 50 -3 77
-2 65 3 -11 5 -31 9 -45 9 -59 2 -47 18 41 55 l91 39 132 -6 c72 -4 147 -9
166 -12 l35 -5 -30 10 c-16 6 -84 16 -150 23 l-120 13 32 17 c17 9 62 39 98
67 l66 50 102 1 c84 1 94 3 57 10 -25 4 -65 8 -89 8 l-44 1 74 79 74 79 75 2
c73 3 71 4 -18 16 l-42 5 24 32 c33 44 59 87 54 87 -3 0 -24 -27 -48 -60 l-43
-60 -86 -1 c-47 0 -116 -3 -153 -7 l-66 -8 19 26 c54 73 89 122 70 101 -127
-142 -109 -130 -222 -156 -57 -13 -138 -35 -179 -48 -41 -14 -76 -25 -77 -24
-1 2 10 21 24 44 23 35 45 49 152 101 69 33 167 74 216 90 78 26 114 35 220
56 52 10 176 5 225 -10z m-182 -201 c-6 -10 -42 -46 -79 -80 -66 -61 -70 -63
-121 -63 -29 0 -93 -5 -143 -10 -49 -5 -91 -7 -93 -5 -10 10 145 145 173 150
48 10 166 22 223 24 48 1 51 -1 40 -16z m-637 -30 c-20 -37 -70 -73 -183 -131
-195 -100 -117 -26 107 101 94 54 88 52 76 30z m284 -12 c-70 -67 -153 -131
-170 -131 -11 0 -74 -13 -139 -30 -66 -16 -121 -29 -122 -27 -9 9 97 103 135
119 56 24 268 87 296 88 19 0 19 0 0 -19z m-427 -139 c-27 -38 -85 -79 -151
-106 -37 -16 -70 -27 -72 -24 -9 9 41 46 130 97 98 55 113 60 93 33z m587 8
c-4 -6 -31 -26 -60 -45 -108 -69 -123 -73 -261 -81 l-129 -6 80 55 c63 44 91
57 130 62 28 3 82 9 120 14 102 12 127 12 120 1z m-765 -55 c-7 -9 -34 -29
-59 -46 l-46 -30 50 45 c48 44 81 62 55 31z m390 11 c0 -3 -33 -25 -73 -50
-54 -34 -93 -50 -152 -62 -153 -31 -147 -32 -88 15 43 35 69 46 165 71 109 28
148 35 148 26z m-375 -112 c-31 -24 -137 -81 -165 -89 -46 -13 35 47 103 77
70 31 92 35 62 12z m485 2 c0 -2 -35 -18 -77 -34 -62 -23 -101 -31 -188 -36
l-110 -6 64 30 c36 17 94 34 130 39 72 9 181 13 181 7z m-370 -41 c0 -10 -100
-47 -163 -61 -87 -18 -90 -17 -42 8 57 30 205 69 205 53z m70 -66 c-32 -13
-310 -61 -330 -57 -23 5 164 47 250 57 101 11 109 11 80 0z m-440 -39 c-8 -5
-19 -10 -25 -10 -5 0 -3 5 5 10 8 5 20 10 25 10 6 0 3 -5 -5 -10z m45 -85 c52
-11 405 -125 405 -131 0 -8 -102 6 -197 26 -51 11 -117 36 -175 65 -98 50
-116 61 -83 52 11 -3 34 -9 50 -12z m23 -63 c120 -65 263 -162 240 -162 -25 0
-225 95 -258 123 -27 23 -84 87 -77 87 3 0 46 -22 95 -48z m740 17 c72 -12
132 -26 132 -30 0 -4 -26 -13 -57 -19 -32 -6 -77 -15 -101 -21 -24 -5 -85 -12
-135 -15 -90 -5 -96 -4 -222 40 l-130 45 110 1 c61 1 128 5 150 9 67 14 114
12 253 -10z m-353 -115 c93 -6 152 -23 259 -77 84 -41 60 -50 -96 -38 -191 16
-216 23 -294 82 -38 28 -73 54 -77 58 -4 4 21 2 55 -5 35 -8 104 -16 153 -20z
m-145 -89 c65 -22 84 -34 135 -86 l60 -61 -35 7 c-95 20 -250 85 -320 135 -22
16 -70 87 -70 104 0 2 35 -14 77 -35 42 -21 111 -50 153 -64z m-75 -82 c73
-37 200 -81 283 -98 17 -4 32 -12 32 -18 0 -9 2 -9 8 -1 5 7 29 8 77 3 39 -4
113 -8 165 -9 79 -1 91 -3 70 -12 -44 -20 -282 -13 -396 11 -187 40 -305 92
-323 141 -6 17 -7 30 -3 28 4 -2 43 -22 87 -45z"/>
<path d="M90 685 c0 -5 5 -17 10 -25 5 -8 10 -10 10 -5 0 6 -5 17 -10 25 -5 8
-10 11 -10 5z"/>
<path d="M110 631 c0 -6 4 -13 10 -16 6 -3 7 1 4 9 -7 18 -14 21 -14 7z"/>
<path d="M1568 1343 c7 -3 16 -2 19 1 4 3 -2 6 -13 5 -11 0 -14 -3 -6 -6z"/>
</g>
</svg>
